<?xml version="1.0" encoding="UTF-8" standalone="no"?>
<!-- Created with Inkscape (http://www.inkscape.org/) -->

<svg
   version="1.1"
   id="svg1"
   width="734.99951"
   height="208.47272"
   viewBox="0 0 734.99951 208.47272"
   sodipodi:docname="icon.svg"
   inkscape:export-filename="plankton_sin_relleno.svg"
   inkscape:export-xdpi="96"
   inkscape:export-ydpi="96"
   xmlns:inkscape="http://www.inkscape.org/namespaces/inkscape"
   xmlns:sodipodi="http://sodipodi.sourceforge.net/DTD/sodipodi-0.dtd"
   xmlns="http://www.w3.org/2000/svg"
   xmlns:svg="http://www.w3.org/2000/svg">
  <sodipodi:namedview
     id="namedview1"
     pagecolor="#ffffff"
     bordercolor="#000000"
     borderopacity="0.25"
     inkscape:showpageshadow="2"
     inkscape:pageopacity="0.0"
     inkscape:pagecheckerboard="0"
     inkscape:deskcolor="#d1d1d1" />
  <defs
     id="defs1" />
  <g
     id="g1"
     style="stroke:none;stroke-opacity:1"
     transform="translate(-1442.4236,-578.9086)">
    <path
       style="fill:#000000;stroke:none;stroke-opacity:1"
       d="m 1623.9236,786.37821 c -8.8912,-1.01096 -21.4683,-3.46376 -22.3665,-4.36196 -0.684,-0.68395 3.6625,-22.65556 4.6755,-23.63486 0.38,-0.36742 4.966,-0.19794 10.191,0.37662 16.1775,1.77896 40.2462,-1.36802 63.9129,-8.35661 18.0126,-5.31897 30.3851,-10.5998 63.2686,-27.00434 33.6242,-16.77399 51.5512,-25.0578 74.3185,-34.34138 7.7,-3.13975 21.875,-9.08381 31.5,-13.20903 9.625,-4.12521 20.875,-8.39033 25,-9.47803 11.0134,-2.90408 26.83,-3.50274 36.3841,-1.37715 13.972,3.10848 21.4331,7.77074 46.502,29.05796 l 7.0659,6 0.024,7.75 c 0.027,8.65444 -0.9011,9.60058 -5.0517,5.15116 -4.2697,-4.57714 -14.2271,-12.06089 -20.9899,-15.77561 -18.2595,-10.02968 -36.2299,-11.63159 -56.2275,-5.0122 -10.83,3.58484 -37.7928,17.21367 -59.2069,29.92714 -85.6583,50.85509 -104.8658,59.36248 -144.4904,63.99761 -13.6242,1.59371 -41.7314,1.7436 -54.5096,0.29068 z m 47,-1.83882 c 38.2414,-3.50556 62.2621,-12.92843 121,-47.46601 14.85,-8.73173 31.95,-18.77806 38,-22.32516 6.05,-3.54711 17.075,-9.50787 24.5,-13.24614 26.0762,-13.12858 38.1045,-16.61781 53.9288,-15.64396 16.5632,1.01931 30.9992,6.83039 44.9516,18.09476 l 7.9334,6.40501 0.3431,-4.29743 c 0.3822,-4.78686 2.5472,-2.48511 -20.5278,-21.82388 -9.4326,-7.90529 -18.2386,-13.11697 -26.9549,-15.95285 -4.8136,-1.56613 -8.8186,-2.00296 -18.1742,-1.98231 -15.3077,0.0338 -21.5206,1.82023 -53.0906,15.26562 -12.8913,5.49031 -23.6592,9.98239 -23.9285,9.98239 -2.1409,0 -46.0263,20.27179 -73.373,33.89285 -35.7046,17.78401 -51.4624,24.20558 -72.8465,29.68624 -19.0053,4.87098 -34.7939,6.75462 -51.3901,6.13099 l -13.6287,-0.51213 -1.9647,9.85175 -1.9646,9.85175 4.5933,0.97139 c 17.6323,3.72881 42.4424,4.96435 62.5934,3.11712 z m 349.1664,-0.0637 c -12.298,-4.23046 -19.8887,-11.67281 -24.4032,-23.9263 l -2.7632,-7.5 v -70.5 -70.5 l 2.2754,-6.5 c 4.1198,-11.7688 12.4612,-20.46233 23.6017,-24.59815 7.8317,-2.90747 26.0769,-2.6682 33.8696,0.44416 12.419,4.9601 21.274,16.81974 24.2599,32.49195 2.0984,11.01324 2.1384,125.15365 0.048,136.87667 -3.2094,17.99888 -12.8264,29.53697 -28.4861,34.17624 -7.7178,2.28646 -21.0381,2.06858 -28.402,-0.46457 z m 31.7228,-3.72764 c 12.086,-5.65576 20.1753,-16.06375 22.6055,-29.08515 0.6078,-3.25671 1.0053,-30.95002 1.0053,-70.0399 0,-70.41026 -0.031,-70.84769 -5.7405,-81.33811 -10.0178,-18.40608 -34.763,-24.9854 -54.5278,-14.49803 -10.5375,5.59127 -17.615,16.46301 -19.7438,30.32849 -0.72,4.68965 -0.9845,28.56727 -0.7864,71 l 0.2985,63.93404 2.3169,6.41707 c 6.5524,18.14791 20.574,27.52232 39.8926,26.67105 6.5539,-0.2888 9.5145,-0.97237 14.6797,-3.38946 z m -22.1821,-23.70751 c -2.3314,-1.01293 -3.8723,-2.74075 -5.2778,-5.91811 -1.9238,-4.34899 -1.9765,-6.50317 -1.7072,-69.78026 0.2712,-63.72885 0.3269,-65.37658 2.3252,-68.79274 2.9256,-5.00156 8.833,-7.00455 14.6554,-4.96917 2.9173,1.01983 4.8289,2.53962 6.25,4.96917 2.0074,3.43187 2.0473,4.79437 2.0473,70 0,62.37124 -0.1128,66.70667 -1.8164,69.82877 -3.0072,5.51093 -9.981,7.48432 -16.4765,4.66234 z m 10.8483,-2.52076 c 1.0581,-0.5663 2.7161,-2.4788 3.6842,-4.25 1.629,-2.98004 1.7604,-8.03356 1.7604,-67.72035 0,-59.68679 -0.1314,-64.74032 -1.7604,-67.72036 -2.0934,-3.82962 -4.4936,-5.27964 -8.7396,-5.27964 -4.246,0 -6.6463,1.45002 -8.7397,5.27964 -1.6289,2.98004 -1.7603,8.03357 -1.7603,67.72036 0,59.54242 0.1345,64.74598 1.75,67.70029 0.9625,1.76017 2.5375,3.65898 3.5,4.2196 2.2821,1.32923 7.8649,1.35657 10.3054,0.0505 z M 1442.4236,681.96702 V 581.38461 l 27.75,0.37466 c 26.277,0.35477 28.0685,0.49933 33.75,2.72327 8.1315,3.18295 15.4707,10.54644 18.3983,18.45913 2.7846,7.52617 4.0501,20.68332 4.0501,42.10776 0,32.7012 -2.3241,43.7876 -11.132,53.10057 -7.6437,8.08216 -19.6344,12.31526 -35.0664,12.37962 l -4.75,0.0198 v 36 36 h -16.5 -16.5 z m 30.2375,62.33241 0.2625,-36.25 11.5,-0.57857 c 14.62,-0.73554 21.6151,-3.53157 28.9709,-11.57995 8.9265,-9.76705 9.4044,-12.07202 9.8193,-47.36444 0.2993,-25.46058 0.091,-31.67643 -1.2541,-37.47769 -2.8763,-12.40247 -9.4944,-20.38106 -20.4568,-24.66232 -5.0862,-1.98639 -7.8551,-2.21768 -31.3293,-2.617 l -25.75,-0.43804 v 98.609 98.60901 h 13.9875 13.9875 z m 0.5125,-62.31195 c -0.4125,-0.42426 -0.75,-17.12139 -0.75,-37.10472 v -36.33333 h 6.3508 c 8.8817,0 12.3115,1.41782 14.6852,6.07053 1.8092,3.54634 1.964,5.98896 1.964,30.9885 0,29.1431 -0.4059,31.83873 -5.2497,34.86578 -2.4828,1.55157 -15.8097,2.73783 -17.0003,1.51324 z m 14.5068,-3.50922 c 4.958,-2.25902 5.2207,-3.69476 5.5672,-30.42883 0.2026,-15.6333 -0.072,-26.33378 -0.7332,-28.55989 -1.6235,-5.46691 -4.9408,-7.96593 -11.4688,-8.63967 l -5.622,-0.58025 v 34.6399 34.63991 h 4.9529 c 2.7242,0 6.0109,-0.48203 7.3039,-1.07117 z m 46.7432,3.54699 V 581.50107 l 16.75,0.27418 16.75,0.27418 v 85.25004 85.25005 l 13.691,-5e-5 c 8.9707,-3e-5 13.928,0.38347 14.3784,1.11233 0.3782,0.6118 -0.3685,7.3618 -1.6592,15 l -2.3468,13.88763 h -28.7817 -28.7817 z m 57.5514,86.04692 2.0514,-12.47025 -14.0514,-0.27625 -14.0514,-0.27624 -0.2556,-85.75 -0.2556,-85.75 h -14.4944 -14.4944 v 98.5 98.5 l 26.75,-0.004 26.75,-0.004 z m 176.433,6.43858 c -1.7822,-4.42127 -2.97,-8.30904 -2.6396,-8.63948 1.7101,-1.7101 29.3481,-16.32184 30.8726,-16.32184 1.6381,0 1.7826,1.33762 1.7826,16.5 v 16.5 h -13.3876 -13.3876 z m 27.0156,-8.05635 v -14.09502 l -4.25,2.44778 c -2.3375,1.34628 -8.3,4.6131 -13.25,7.2596 -4.95,2.64649 -9.1326,4.90784 -9.2946,5.02521 -0.1621,0.11737 0.8983,3.19331 2.3563,6.83543 l 2.651,6.62203 h 10.8936 10.8937 z m 16,-5.27268 v -21.36771 l 14.421,-8.63229 c 7.9316,-4.74776 14.9066,-8.63229 15.5,-8.63229 0.748,0 1.079,9.20312 1.079,30 v 30 h -15.5 -15.5 z m 29,-8.01254 v -27.38025 l -12.943,7.63025 -12.943,7.63025 -0.057,19.75 -0.057,19.75 h 13 13 z m 21.9982,-3.80229 -11.2781,-33.18254 2.6052,-2.07733 c 4.1531,-3.3116 22.1899,-12.55759 24.4969,-12.55759 1.6245,0 2.3596,0.96133 3.2427,4.24094 0.6281,2.33251 6.7204,19.94083 13.5385,39.12959 6.8181,19.18876 12.3966,35.50534 12.3966,36.25906 0,1.10636 -3.2489,1.37041 -16.8619,1.37041 h -16.8618 z m 42.0018,30.58527 c 0,-0.32849 -3.87,-11.46599 -8.5999,-24.75 -4.7299,-13.284 -10.6193,-30.11523 -13.0875,-37.40273 -2.4682,-7.2875 -4.9551,-13.25 -5.5264,-13.25 -1.1311,0 -18.1925,9.07547 -21.0441,11.19399 -1.639,1.21766 -1.0414,3.45368 8.8352,33.05601 l 10.5932,31.75 h 14.4147 c 7.9281,0 14.4148,-0.26877 14.4148,-0.59727 z m 29,-35.90273 c 0,-26.21431 0.335,-38.5 1.0497,-38.5 3.5422,0 18.0276,9.91304 24.7003,16.90352 l 5.25,5.50006 v 27.29821 27.29821 h -15.5 -15.5 z m 28,10.63574 v -25.86426 l -5.025,-5.10493 c -4.8328,-4.90959 -9.2018,-8.22379 -17.225,-13.0663 l -3.75,-2.26337 v 36.08156 36.08156 h 13 13 z m 128,-72.63574 v -100.5 h 14.9615 14.9614 l 1.095,4.25 c 0.6023,2.3375 2.8404,10.775 4.9737,18.75 2.1332,7.975 8.0036,30.89716 13.0453,50.93813 5.0417,20.04098 9.5424,37.36598 10.0015,38.5 0.4618,1.14042 0.8631,-23.52322 0.8982,-55.18813 l 0.063,-57.25 h 14 14 v 100.52604 100.52605 l -15.2311,-0.27605 -15.2312,-0.27604 -8.7979,-31.5 c -4.8388,-17.325 -11.4726,-41.85 -14.7417,-54.5 l -5.9438,-23 -0.027,54.75 -0.027,54.75 h -14 -14 z m 25,37.5 c 0,-52.21058 0.2059,-61 1.4291,-61 0.9391,0 1.8254,1.97156 2.585,5.75 2.3076,11.47893 7.1294,31.09693 11.4903,46.75 2.4517,8.8 7.7656,27.925 11.8087,42.5 l 7.351,26.5 13.1679,0.27902 13.168,0.27903 v -98.52903 -98.52902 h -11.5 -11.5 v 62 c 0,52.98966 -0.2071,62 -1.4248,62 -1.7787,0 -2.4298,-2.20317 -13.1513,-44.5 -4.74,-18.7 -11.2745,-43.9536 -14.5211,-56.1191 -3.2465,-12.1655 -5.9028,-22.403 -5.9028,-22.75 0,-0.347 -5.625,-0.6309 -12.5,-0.6309 h -12.5 v 98.5 98.5 h 11 11 z m -504.25,30.28374 c -2.0449,-0.30978 -2.7428,-0.97644 -2.722,-2.60017 0.015,-1.20096 5.1014,-38.85857 11.3021,-83.68357 l 11.274,-81.5 20.698,-0.27029 c 11.3838,-0.14866 20.6979,-0.0379 20.6979,0.24616 0,1.53825 21.139,145.29395 21.5721,146.70072 0.2838,0.92213 -0.1292,3.22089 -0.9178,5.10835 -1.25,2.99155 -2.378,3.77054 -8.7941,6.07288 -9.3104,3.34092 -25.4532,7.18067 -38.3602,9.12442 -9.1536,1.3785 -28.0622,1.81462 -34.75,0.8015 z m 40.75,-4.27611 c 22.7247,-4.34781 37.8498,-9.38356 38.9918,-12.98194 0.3378,-1.06413 -1.8979,-19.16774 -4.9682,-40.23024 -3.0702,-21.0625 -7.819,-53.64483 -10.5529,-72.40519 -2.7339,-18.76035 -4.9707,-34.62285 -4.9707,-35.25 0,-0.81242 -5.2962,-1.14026 -18.4206,-1.14026 h -18.4205 l -0.5607,2.75 c -0.597,2.92847 -4.7005,32.52389 -15.1477,109.25 -3.5572,26.125 -6.6902,48.48388 -6.9622,49.68641 -0.4162,1.84016 0.021,2.2614 2.7586,2.65998 6.6906,0.97398 27.6296,-0.30621 38.2531,-2.33876 z m -13.0923,-28.75763 c 1.35,-8.67631 11.5923,-97.03499 11.5923,-100.00506 0,-2.05971 0.4938,-3.24494 1.3519,-3.24494 0.9938,0 1.6851,3.2447 2.6099,12.25 0.6919,6.7375 3.414,30.475 6.0491,52.75 3.5292,29.83305 4.4879,40.6935 3.6401,41.23468 -0.6331,0.40408 -6.7031,0.74158 -13.4889,0.75 l -12.3379,0.0153 z m 22.3691,0.9091 c 1.0159,-0.64473 0.2499,-9.5803 -3.7495,-43.73469 -2.7645,-23.60843 -5.1391,-43.82441 -5.2768,-44.92441 -0.1378,-1.1 -2.426,16.675 -5.0849,39.5 -2.659,22.825 -5.0826,43.4125 -5.3859,45.75 l -0.5516,4.25 9.386,-0.0153 c 5.1622,-0.008 9.9605,-0.37993 10.6627,-0.82558 z m -9.1145,-99.4091 c -0.2774,-0.6875 -0.5044,-0.125 -0.5044,1.25 0,1.375 0.227,1.9375 0.5044,1.25 0.2774,-0.6875 0.2774,-1.8125 0,-2.5 z m 58.3377,36.75 v -73.5 h 14.7547 14.7548 l 4.8801,16.75 c 2.684,9.2125 9.5204,33.175 15.1918,53.25 l 10.3118,36.5 0.053,-53.25 0.053,-53.25 h 14.5087 14.5088 l -0.2588,53.093 -0.2587,53.09301 -14,6.29078 c -7.7,3.45993 -18.178,8.36808 -23.2844,10.907 -5.1064,2.53891 -9.6995,4.61621 -10.207,4.61621 -0.5074,0 -2.7051,-5.7375 -4.8836,-12.75 -2.1786,-7.0125 -5.0771,-16.35 -6.4412,-20.75 l -2.4802,-8 -0.1018,24.58844 -0.1018,24.58843 -11.834,5.66157 c -6.5087,3.11385 -12.5837,5.66156 -13.5,5.66156 -1.5396,0 -1.666,-5.57808 -1.666,-73.5 z m 14.274,65.2805 10.9917,-5.21949 -0.5931,-27.53051 c -0.3263,-15.14178 -0.897,-28.81275 -1.2685,-30.37994 -0.5671,-2.39319 -0.3866,-2.79348 1.1274,-2.5 0.9915,0.19219 2.1365,1.47444 2.5445,2.84944 0.4079,1.375 3.5451,11.95 6.9715,23.5 3.4263,11.55 6.6069,22.01438 7.068,23.25419 l 0.8382,2.2542 8.5231,-4.22706 c 4.7501,-2.35578 8.5232,-4.85974 8.5232,-5.65625 0,-2.36168 -28.4174,-103.83221 -30.9284,-110.4367 l -1.0221,-2.68838 h -12.5248 -12.5247 v 71 c 0,39.05 0.2885,71 0.6411,71 0.3527,0 5.5875,-2.34878 11.6329,-5.2195 z m 61.9535,-30.05838 9.7275,-4.22212 0.023,-51.25 0.023,-51.25 h -12 -12 v 55.33333 c 0,30.43333 0.314,55.64733 0.6978,56.0311 0.8367,0.83676 1.1687,0.72283 13.5297,-4.64231 z m 174.7434,-4.25721 c -0.7007,-0.8443 -7.0558,-6.03961 -14.1225,-11.54514 l -12.8484,-10.01006 v -27.05768 -27.05769 l -12.5002,0.35283 -12.5003,0.35283 3e-4,-14.75 2e-4,-14.75 h 41 41 v 14.5 14.5 h -13 -13 v 38.5 c 0,32.03462 -0.2313,38.5 -1.3776,38.5 -0.7576,0 -1.9508,-0.69079 -2.6515,-1.53509 z m 14.2791,-77.24479 12.75,-0.27988 v -12.47012 -12.47012 h -38.5 -38.5 v 12.5 12.5 h 12.5 12.5 v 26.95121 26.95121 l 12.75,9.945 12.75,9.945 0.5,-36.64621 0.5,-36.64621 z m -163.25,22.27988 v -49.5 h 15.4872 15.4872 l 0.2628,35.25 0.2628,35.25 12.1252,-30.5 c 6.6689,-16.775 12.9175,-32.6375 13.8859,-35.25 l 1.7606,-4.75 h 15.8642 c 12.5792,0 15.8641,0.27698 15.8641,1.33768 0,1.70535 -21.8372,57.27663 -26.3199,66.9788 l -3.3747,7.30418 -6.4027,2.31999 c -3.5215,1.27599 -13.1527,5.22889 -21.4027,8.78422 -19.4029,8.36168 -29.5179,12.27513 -31.7272,12.27513 -1.6732,0 -1.7728,-2.78118 -1.7728,-49.5 z m 21.5,39.31442 c 7.7,-3.24952 19.2825,-8.02461 25.7388,-10.61132 l 11.7389,-4.7031 3.4333,-7.02879 c 3.0151,-6.17253 25.589,-62.58696 25.589,-63.94951 0,-0.28694 -5.9625,-0.51266 -13.25,-0.50162 l -13.25,0.0201 -14.8601,37.47991 c -9.5956,24.20205 -15.3525,37.47992 -16.25,37.47992 -1.1618,0 -1.3899,-6.15328 -1.3899,-37.5 v -37.5 h -13 -13 v 47.06738 47.06739 l 2.25,-0.70607 c 1.2375,-0.38834 8.55,-3.36477 16.25,-6.61428 z"
       id="path17-7" />
    <path
       style="fill:#ffffff;stroke:none;stroke-width:47.1053;stroke-opacity:1"
       d="m 1445.0657,682.00773 v -97.52381 h 22.3392 c 12.2866,0 25.3592,0.64766 29.0502,1.43924 9.4851,2.03419 16.9789,8.12137 21.7534,17.67029 l 3.9537,7.9072 -0.034,34.26512 c -0.033,33.07052 -0.1402,34.48285 -3.0757,40.51025 -3.6374,7.46879 -13.1797,16.24313 -19.7916,18.19894 -2.6259,0.77672 -9.5777,1.75135 -15.4486,2.16584 l -10.6743,0.75362 -0.8572,19.80448 c -0.4715,10.89246 -0.8572,27.12331 -0.8572,36.06855 v 16.26409 h -13.1789 -13.1789 z m 46.0318,-1.26743 c 3.8098,-2.03896 4.2904,-4.63581 5.0279,-27.17057 1.3091,-40.00244 -0.5908,-45.36381 -16.0758,-45.36381 h -8.6261 l 0.011,30.64093 c 0.01,16.85251 0.3943,33.82936 0.8622,37.72634 l 0.8508,7.08541 7.7648,-0.81158 c 4.2707,-0.44637 8.8538,-1.39439 10.1848,-2.10672 z"
       id="path18" />
    <path
       style="fill:#ffffff;stroke:none;stroke-width:47.1053;stroke-opacity:1"
       d="m 1537.3179,682.00773 v -97.52381 h 13.8379 13.8378 v 85.6628 85.66281 h 13.8378 c 10.1871,0 13.8402,0.43461 13.8466,1.64736 0,0.90605 -0.6909,6.2435 -1.5459,11.861 l -1.5546,10.21365 h -26.1298 -26.1298 z"
       id="path19" />
    <path
       style="fill:#ffffff;stroke:none;stroke-width:47.1053;stroke-opacity:1"
       d="m 1611.6787,746.14016 c -0.687,-1.7903 11.2473,-93.2177 19.0371,-145.84157 l 2.2435,-15.15573 17.8118,-0.36496 17.8117,-0.36495 8.8184,60.98786 c 12.8045,88.55599 12.5921,86.56343 9.4707,88.84587 -6.7852,4.96144 -37.6981,11.76628 -59.5781,13.11487 -12.955,0.7985 -14.8983,0.64649 -15.6151,-1.22139 z m 49.1913,-25.42641 c 3.9751,-1.06526 3.9684,-1.22559 -2.3509,-56.29531 -5.5243,-48.14104 -5.958,-50.94096 -7.8918,-50.94096 -1.3987,0 -1.8647,2.81866 -4.5755,27.67568 -3.2691,29.97633 -8.5702,74.16054 -9.2893,77.42599 -0.6365,2.88973 -0.3755,2.96479 10.2446,2.94727 5.9937,-0.01 12.2321,-0.3756 13.8629,-0.81267 z"
       id="path20" />
    <path
       style="fill:#ffffff;stroke:none;stroke-width:47.1053;stroke-opacity:1"
       d="m 1712.5972,654.33205 v -69.84813 h 11.7813 11.7812 l 3.3872,11.10481 c 5.2737,17.28966 26.7949,94.85741 27.2952,98.37847 0.3698,2.60238 -0.6967,3.77725 -6.1419,6.76614 -3.6242,1.98932 -7.2225,3.63079 -7.9962,3.64772 -0.7737,0.0169 -3.6705,-7.53061 -6.4374,-16.7723 -9.7335,-32.51119 -10.0086,-33.27671 -11.9618,-33.27671 -1.6351,0 -1.7872,4.30777 -1.0613,30.06843 l 0.8472,30.06843 -10.2246,4.85563 c -5.6235,2.67061 -10.4596,4.85564 -10.7467,4.85564 -0.2872,0 -0.5222,-31.43166 -0.5222,-69.84813 z"
       id="path22" />
    <path
       style="fill:#ffffff;stroke:none;stroke-width:47.1053;stroke-opacity:1"
       d="m 1631.547,783.93114 c -16.7667,-2.02298 -25.7974,-3.49296 -26.2827,-4.27819 -0.5023,-0.81266 0.239,-5.25281 2.6235,-15.71417 0.679,-2.9791 0.9929,-3.0454 10.2927,-2.17394 19.7383,1.84963 54.5455,-4.22573 80.198,-13.99802 6.0082,-2.28882 26.9363,-11.8513 46.507,-21.24998 43.7864,-21.02814 65.0372,-30.60574 98.1827,-44.25029 34.9052,-14.36895 37.9049,-15.14799 55.832,-14.50018 13.3039,0.48075 15.4238,0.91576 22.6873,4.65561 15.3497,7.90329 40.2724,29.0338 39.1785,33.2171 -0.5928,2.26659 -1.5124,1.90569 -8.7707,-3.44198 -16.3443,-12.04188 -29.4254,-16.63148 -47.6452,-16.71655 -8.6347,-0.0403 -14.4368,0.73779 -21.3305,2.86057 -13.0425,4.01616 -44.0019,19.9677 -80.5857,41.52103 -65.8657,38.80466 -87.9073,48.2278 -124.0728,53.04314 -12.6289,1.68151 -36.9608,2.2147 -46.8141,1.02585 z"
       id="path23" />
    <path
       style="fill:#ffffff;stroke:none;stroke-width:47.1053;stroke-opacity:1"
       d="m 1772.7022,691.78411 c -0.44,-1.14654 -0.8,-25.75813 -0.8,-54.69241 v -52.60778 h 11.2021 11.202 v 50.54251 50.54251 l -9.3954,4.1499 c -10.852,4.79321 -11.143,4.84244 -12.2087,2.06527 z"
       id="path24" />
    <path
       style="fill:#ffffff;stroke:none;stroke-width:47.1053;stroke-opacity:1"
       d="m 1815.3926,630.62773 v -46.14381 h 11.6991 11.699 l 0.9714,37.55984 c 0.5342,20.65792 1.4172,37.55985 1.9623,37.55985 1.3486,0 6.8552,-12.63854 19.8098,-45.46718 6.0066,-15.22163 11.3306,-28.14398 11.831,-28.71635 0.5003,-0.57237 6.3379,-0.86889 12.9723,-0.65894 l 12.0626,0.38172 -13.2732,32.94723 c -7.3003,18.12098 -13.5628,33.62708 -13.9167,34.45799 -0.3539,0.83092 -10.8337,5.68289 -23.2885,10.78216 -12.4547,5.09927 -24.8689,10.20963 -27.587,11.35635 l -4.9421,2.08495 z"
       id="path25" />
    <path
       style="fill:#ffffff;stroke:none;stroke-width:47.1053;stroke-opacity:1"
       d="m 1866.1167,749.17632 c -5.5649,-16.69537 -9.8345,-31.07684 -9.488,-31.95882 0.9542,-2.42864 19.4531,-11.95936 20.6755,-10.65205 0.5868,0.62761 5.3206,13.29865 10.5195,28.15785 5.199,14.8592 10.8832,31.01982 12.6317,35.91248 l 3.1791,8.89576 h -13.6999 -13.6999 z"
       id="path26" />
    <path
       style="fill:#ffffff;stroke:none;stroke-width:47.1053;stroke-opacity:1"
       d="m 1820.9936,779.88072 c 3.443,-0.27148 9.077,-0.27148 12.5199,0 3.443,0.27149 0.626,0.49361 -6.2599,0.49361 -6.886,0 -9.703,-0.22212 -6.26,-0.49361 z"
       id="path27" />
    <path
       style="fill:#ffffff;stroke:none;stroke-width:11.7763;stroke-opacity:1"
       d="m 1814.5689,760.80985 v -19.54536 l 12.6762,-7.47137 c 6.9718,-4.10925 12.7541,-7.47137 12.8494,-7.47137 0.095,0 0.1732,12.15753 0.1732,27.01674 v 27.01673 h -12.8494 -12.8494 z"
       id="path28" />
    <path
       style="fill:#ffffff;stroke:none;stroke-width:11.7763;stroke-opacity:1"
       d="m 1771.4694,774.50708 c -1.2605,-3.21647 -2.3877,-6.16464 -2.5047,-6.55149 -0.1918,-0.63415 0.4935,-1.08481 6.9634,-4.57918 3.9469,-2.13169 9.8028,-5.33641 13.013,-7.1216 3.2103,-1.78519 5.9161,-3.2458 6.0129,-3.2458 0.097,0 0.176,6.1529 0.176,13.67311 v 13.6731 h -10.6843 -10.6843 z"
       id="path29" />
    <path
       style="fill:#ffffff;stroke:none;stroke-width:11.7763;stroke-opacity:1"
       d="m 1935.4852,744.60747 c 0,-19.66126 0.079,-35.74775 0.1749,-35.74775 0.4758,0 10.054,6.14219 12.8928,8.26766 1.7827,1.33475 5.354,4.49114 7.9362,7.0142 l 4.695,4.58739 v 25.81312 25.81313 h -12.8494 -12.8495 z"
       id="path30" />
    <path
       style="fill:#ffffff;stroke:none;stroke-width:11.7763;stroke-opacity:1"
       d="m 1948.0875,672.06794 -12.6023,-9.82567 v -26.93581 -26.9358 h -12.5199 -12.52 v -12.35521 -12.35521 h 38.3836 38.3835 v 12.35521 12.35521 l -3.2124,0.0336 c -9.2313,0.0967 -21.8011,0.48836 -21.9979,0.68549 -0.1235,0.12371 -0.4308,14.87584 -0.683,32.7825 -0.2521,17.90667 -0.4968,34.23692 -0.5438,36.28945 l -0.085,3.73188 z"
       id="path31" />
    <path
       style="fill:#ffffff;stroke:none;stroke-width:11.7763;stroke-opacity:1"
       d="m 2026.9138,783.33749 c -10.4621,-1.86718 -18.6137,-7.14432 -24.353,-15.76553 -2.4559,-3.68901 -3.7602,-6.41547 -5.9484,-12.43434 l -1.5524,-4.27018 -0.1741,-57.98713 c -0.1869,-62.23955 -0.012,-73.75256 1.2065,-79.46685 2.3055,-10.8104 7.7658,-19.65433 15.5009,-25.10651 10.087,-7.1099 23.9583,-9.2073 35.9691,-5.43866 10.5258,3.30272 18.2018,9.92409 23.2622,20.06608 4.0966,8.21036 4.3499,12.57 4.3447,74.79022 0,49.43284 -0.3358,70.84134 -1.1593,74.82863 -2.862,13.85553 -13.0632,25.21881 -26.7004,29.74194 -5.2773,1.75035 -13.9463,2.19338 -20.3958,1.04233 z m 12.9099,-25.57986 c 2.9556,-0.81539 6.2436,-3.93251 7.016,-6.6514 1.0232,-3.60208 1.1347,-10.31683 1.1437,-68.93377 0.01,-63.77824 -0.038,-65.78506 -1.6385,-69.06548 -1.0984,-2.25089 -3.5157,-4.45583 -5.9394,-5.41775 -1.5891,-0.63068 -2.5839,-0.78015 -5.2549,-0.78957 -2.8963,-0.0102 -3.5217,0.0948 -5.1716,0.86813 -2.2436,1.05168 -4.484,3.19888 -5.4508,5.22408 -0.387,0.81072 -0.8644,2.586 -1.0609,3.94507 -0.6008,4.15485 -1.0431,47.34912 -0.9142,89.287 0.1342,43.6752 0.048,41.84326 2.1642,46.00159 2.7014,5.30822 8.38,7.38778 15.1064,5.5321 z"
       id="path32" />
    <path
       style="fill:#ffffff;stroke:none;stroke-width:11.7763;stroke-opacity:1"
       d="m 2092.6435,681.96283 v -98.39239 l 11.7787,0.17012 c 6.4782,0.0936 12.0221,0.27177 12.3197,0.396 0.3783,0.15794 0.9469,1.82949 1.8905,5.55817 0.7422,2.93276 3.3585,12.96782 5.8139,22.30013 2.4554,9.3323 6.9144,26.53076 9.9088,38.21879 12.593,49.15445 13.2311,51.55299 14.7056,55.27807 0.6159,1.5559 0.8973,1.90289 1.6105,1.98559 0.7131,0.0827 0.9005,-0.0613 1.0717,-0.82368 0.5649,-2.51544 0.8396,-25.74167 0.8515,-72.00755 l 0.013,-50.98584 h 11.3668 11.3668 v 98.38261 98.38261 l -12.9318,-0.23539 c -7.1125,-0.12947 -13.0177,-0.33061 -13.1227,-0.44697 -0.1051,-0.11636 -3.4979,-12.1467 -7.5396,-26.73409 -4.0418,-14.58738 -8.7458,-31.56345 -10.4534,-37.72458 -4.2572,-15.36063 -8.5324,-32.25989 -11.2939,-44.6435 -2.2721,-10.18882 -2.8381,-11.8876 -4.0395,-12.12428 -0.2751,-0.0542 -0.6029,0.16819 -0.7285,0.49421 -0.6411,1.66431 -0.8201,15.93041 -0.831,66.24011 l -0.012,55.10425 h -10.8726 -10.8726 z"
       id="path33" />
  </g>
</svg>
