<?xml version="1.0" encoding="UTF-8" standalone="no"?>
<!-- Created with Inkscape (http://www.inkscape.org/) -->

<svg
   version="1.1"
   id="svg1"
   width="1278.3525"
   height="126.48071"
   viewBox="0 0 1278.3525 126.48071"
   sodipodi:docname="icon.svg"
   inkscape:export-filename="plankton_sin_relleno.svg"
   inkscape:export-xdpi="96"
   inkscape:export-ydpi="96"
   xml:space="preserve"
   xmlns:inkscape="http://www.inkscape.org/namespaces/inkscape"
   xmlns:sodipodi="http://sodipodi.sourceforge.net/DTD/sodipodi-0.dtd"
   xmlns="http://www.w3.org/2000/svg"
   xmlns:svg="http://www.w3.org/2000/svg"><sodipodi:namedview
     id="namedview1"
     pagecolor="#ffffff"
     bordercolor="#000000"
     borderopacity="0.25"
     inkscape:showpageshadow="2"
     inkscape:pageopacity="0.0"
     inkscape:pagecheckerboard="0"
     inkscape:deskcolor="#d1d1d1" /><defs
     id="defs1" /><g
     id="g1"
     style="stroke:none;stroke-opacity:1"
     transform="translate(-1127.4544,-900.814)"><path
       style="fill:#05282d;fill-opacity:1;stroke:none;stroke-width:47.1053;stroke-opacity:1"
       d="m 1128.7722,992.52436 c 0,-38.25285 0.1733,-41.41084 2.3063,-42.03926 1.2685,-0.3737 10.016,-3.05964 19.4389,-5.96874 58.4493,-18.04487 140.2257,-31.38627 219.4285,-35.79865 31.2839,-1.74282 99.2914,-1.75443 129.8121,-0.0222 56.5921,3.21199 106.9245,9.33142 169.3488,20.58945 10.777,1.9436 15.8274,2.9662 38.8778,7.87196 5.7987,1.23413 24.1832,5.6941 40.8545,9.91104 34.8055,8.80392 30.7335,7.79851 52.0567,12.85338 15.2934,3.62547 20.3609,4.76467 44.4787,9.99898 36.7272,7.97094 94.7504,16.53727 142.6615,21.06203 122.3625,11.55605 260.6164,3.14282 359.1249,-21.8538 2.8993,-0.73572 8.8298,-2.21684 13.1789,-3.29139 12.4755,-3.08242 39.7418,-11.04937 44.4787,-12.99627 2.1674,-0.89079 2.3063,1.52176 2.3063,40.04767 v 40.99564 h -639.1763 -639.1763 z"
       id="path34"
       transform="translate(-1.3178148,-6.5894466)" /></g></svg>
